<svg width="375" height="810" viewBox="0 0 375 810" fill="none" xmlns="http://www.w3.org/2000/svg">
<path fill-rule="evenodd" clip-rule="evenodd" d="M-217.253 -403.007H584.044V515.595C584.044 522.198 578.692 527.55 572.089 527.55H-205.297C-211.9 527.55 -217.253 522.198 -217.253 515.595V-403.007Z" fill="white"/>
<mask id="mask0_407_1111" style="mask-type:luminance" maskUnits="userSpaceOnUse" x="-218" y="-404" width="811" height="1620">
<path fill-rule="evenodd" clip-rule="evenodd" d="M-218 -403.007H593V1203.05C593 1209.65 587.647 1215.01 581.044 1215.01H-206.044C-212.647 1215.01 -218 1209.65 -218 1203.05V-403.007Z" fill="white"/>
</mask>
<g mask="url(#mask0_407_1111)">
<path fill-rule="evenodd" clip-rule="evenodd" d="M434.196 53.0555L345.073 207.874C343.124 211.262 338.806 212.42 335.43 210.467L64.9061 53.8224C61.5301 51.8666 60.3735 47.5385 62.3222 44.1526L151.446 -110.666C153.396 -114.051 157.712 -115.212 161.09 -113.259L431.612 43.3857C434.988 45.3415 436.146 49.6709 434.196 53.0555ZM627.911 411.416L538.788 566.235C536.839 569.622 532.521 570.781 529.145 568.828L258.621 412.183C255.245 410.227 254.089 405.899 256.037 402.513L345.161 247.694C347.111 244.31 351.427 243.148 354.805 245.101L625.328 401.746C628.703 403.702 629.861 408.031 627.911 411.416ZM1041.21 -286.502L952.089 -131.683C950.14 -128.296 945.822 -127.137 942.446 -129.09L671.922 -285.735C668.546 -287.691 667.389 -292.019 669.338 -295.405L758.462 -450.224C760.411 -453.609 764.728 -454.77 768.106 -452.817L1038.63 -296.172C1042 -294.216 1043.16 -289.887 1041.21 -286.502ZM201.959 -586.819L112.835 -432C110.887 -428.612 106.568 -427.454 103.192 -429.407L-167.331 -586.052C-170.708 -588.007 -171.864 -592.335 -169.915 -595.721L-80.7919 -750.54C-78.8419 -753.925 -74.5252 -755.086 -71.1478 -753.133L199.375 -596.488C202.751 -594.533 203.909 -590.203 201.959 -586.819ZM109.068 -71.3385C107.118 -67.9539 102.802 -66.7926 99.4243 -68.7483L-22.845 -139.549C-26.2225 -141.502 -27.379 -145.834 -25.429 -149.22L63.6946 -304.037C65.6432 -307.422 69.9612 -308.583 73.3373 -306.628L195.608 -235.827C198.984 -233.874 200.141 -229.545 198.192 -226.158L109.068 -71.3385ZM-98.0944 -63.0428C-100.043 -59.6554 -104.361 -58.4954 -107.737 -60.4512L-230.008 -131.249C-233.384 -133.204 -234.54 -137.537 -232.592 -140.921L-143.468 -295.737C-141.518 -299.125 -137.202 -300.283 -133.826 -298.33L-11.5548 -227.532C-8.17871 -225.577 -7.02087 -221.245 -8.97083 -217.86L-98.0944 -63.0428ZM7.97272 -247.137C6.02411 -243.75 1.70605 -242.59 -1.66998 -244.546L-123.941 -315.343C-127.317 -317.299 -128.473 -321.631 -126.525 -325.016L-37.4011 -479.832C-35.4511 -483.22 -31.1345 -484.378 -27.7584 -482.425L94.5123 -411.626C97.8884 -409.672 99.0463 -405.34 97.0963 -401.955L7.97272 -247.137ZM-252.998 -153.38C-254.947 -149.992 -259.265 -148.832 -262.641 -150.788L-384.911 -221.585C-388.287 -223.541 -389.444 -227.873 -387.495 -231.258L-298.372 -386.074C-296.422 -389.462 -292.105 -390.62 -288.729 -388.667L-166.458 -317.868C-163.082 -315.914 -161.924 -311.582 -163.874 -308.197L-252.998 -153.38ZM307.894 -63.5281C305.945 -60.1407 301.627 -58.9808 298.251 -60.9366L175.98 -131.734C172.604 -133.69 171.448 -138.022 173.396 -141.407L262.52 -296.223C264.47 -299.61 268.786 -300.769 272.162 -298.816L394.433 -228.017C397.809 -226.063 398.967 -221.73 397.017 -218.346L307.894 -63.5281ZM455.584 22.4167C453.636 25.804 449.318 26.964 445.942 25.0082L323.671 -45.7892C320.295 -47.745 319.138 -52.0771 321.087 -55.4618L410.211 -210.278C412.161 -213.665 416.477 -214.824 419.853 -212.871L542.124 -142.072C545.5 -140.118 546.658 -135.786 544.708 -132.401L455.584 22.4167ZM-113.978 -35.4483L-287.814 266.518C-289.762 269.907 -294.08 271.067 -297.456 269.11L-567.98 112.469C-571.356 110.515 -572.513 106.184 -570.564 102.795L-396.729 -199.173C-394.779 -202.56 -390.462 -203.72 -387.086 -201.766L-116.562 -45.1223C-113.186 -43.1665 -112.028 -38.8371 -113.978 -35.4483ZM931.926 -104.616L758.09 197.35C756.142 200.739 751.824 201.899 748.448 199.942L477.924 43.3008C474.548 41.3465 473.391 37.0157 475.34 33.6269L649.175 -268.341C651.125 -271.729 655.442 -272.888 658.818 -270.934L929.342 -114.29C932.718 -112.335 933.876 -108.005 931.926 -104.616ZM-254.624 249.693C-252.674 246.308 -248.357 245.146 -244.98 247.1L-122.71 317.9C-119.333 319.856 -118.177 324.184 -120.127 327.57L-209.25 482.389C-211.199 485.776 -215.517 486.935 -218.893 484.982L-341.164 414.182C-344.54 412.226 -345.696 407.897 -343.747 404.509L-254.624 249.693ZM-15.6132 144.135L-104.737 298.951C-106.685 302.339 -111.003 303.497 -114.38 301.541L-236.65 230.744C-240.026 228.791 -241.183 224.459 -239.234 221.072L-150.111 66.2553C-148.161 62.8679 -143.844 61.7093 -140.468 63.6651L-18.1972 134.462C-14.8198 136.418 -13.6633 140.75 -15.6132 144.135ZM-43.3381 -119.218C-41.3895 -122.606 -37.0715 -123.764 -33.6954 -121.811L88.5753 -51.0111C91.9514 -49.0553 93.1078 -44.7259 91.1592 -41.3385L2.03571 113.476C0.0856934 116.864 -4.23096 118.025 -7.6084 116.068L-129.879 45.2705C-133.255 43.3147 -134.412 38.9853 -132.462 35.5979L-43.3381 -119.218ZM54.3177 72.2174L176.589 143.018C179.965 144.972 181.121 149.301 179.172 152.687L19.4557 430.133C17.5058 433.519 13.1891 434.68 9.81305 432.724L-112.458 361.924C-115.834 359.968 -116.992 355.642 -115.042 352.254L44.675 74.8076C46.6237 71.4215 50.9417 70.2616 54.3177 72.2174ZM242.843 -610.957C244.792 -614.343 249.11 -615.503 252.486 -613.548L374.756 -542.747C378.132 -540.793 379.289 -536.464 377.34 -533.078L217.624 -255.632C215.674 -252.246 211.357 -251.085 207.981 -253.041L85.7101 -323.841C82.3341 -325.797 81.1762 -330.123 83.1262 -333.511L242.843 -610.957ZM87.92 343.061C89.87 339.674 94.1866 338.514 97.5641 340.471L219.835 411.269C223.211 413.225 224.367 417.554 222.417 420.941L133.294 575.758C131.345 579.145 127.027 580.304 123.651 578.348L1.38037 507.55C-1.99567 505.596 -3.15222 501.262 -1.20355 497.878L87.92 343.061ZM-131.4 378.819C-129.45 375.431 -125.133 374.271 -121.756 376.228L0.514771 447.026C3.89081 448.982 5.0473 453.311 3.09735 456.698L-86.0262 611.515C-87.9749 614.902 -92.2929 616.061 -95.6689 614.105L-217.94 543.307C-221.316 541.353 -222.472 537.02 -220.524 533.635L-131.4 378.819ZM-190.443 -568.658C-188.493 -572.046 -184.176 -573.206 -180.799 -571.249L-58.5281 -500.451C-55.152 -498.495 -53.9955 -494.166 -55.9455 -490.779L-145.069 -335.962C-147.018 -332.575 -151.336 -331.416 -154.712 -333.372L-276.983 -404.17C-280.359 -406.124 -281.515 -410.457 -279.566 -413.842L-190.443 -568.658ZM103.803 315.469L192.926 160.654C194.876 157.267 199.194 156.107 202.57 158.06L324.841 228.86C328.217 230.817 329.373 235.145 327.425 238.53L238.301 393.349C236.351 396.736 232.033 397.896 228.657 395.942L106.386 325.142C103.01 323.186 101.854 318.857 103.803 315.469ZM517.513 300.995L606.637 146.18C608.587 142.793 612.905 141.633 616.281 143.586L738.552 214.386C741.928 216.343 743.084 220.671 741.136 224.056L652.012 378.875C650.062 382.263 645.744 383.422 642.368 381.468L520.097 310.668C516.721 308.712 515.565 304.383 517.513 300.995ZM281.342 -325.016L370.465 -479.831C372.415 -483.218 376.733 -484.378 380.109 -482.425L502.38 -411.625C505.756 -409.668 506.912 -405.34 504.964 -401.955L415.84 -247.136C413.89 -243.749 409.572 -242.589 406.196 -244.543L283.926 -315.344C280.549 -317.299 279.393 -321.629 281.342 -325.016ZM428.949 -236.19L518.073 -391.005C520.022 -394.393 524.34 -395.553 527.717 -393.6L649.987 -322.799C653.363 -320.842 654.52 -316.514 652.571 -313.13L563.448 -158.311C561.498 -154.923 557.18 -153.763 553.804 -155.718L431.533 -226.518C428.157 -228.474 427 -232.803 428.949 -236.19ZM454.812 61.5842C456.762 58.1968 461.08 57.0369 464.456 58.9899L586.727 129.79C590.103 131.747 591.259 136.075 589.311 139.46L500.187 294.279C498.237 297.666 493.919 298.826 490.543 296.872L368.272 226.072C364.896 224.116 363.74 219.786 365.688 216.399L454.812 61.5842ZM623.506 -573.423C625.456 -576.81 629.774 -577.97 633.15 -576.017L755.421 -505.217C758.797 -503.26 759.954 -498.932 758.005 -495.547L668.881 -340.728C666.931 -337.341 662.613 -336.181 659.237 -338.135L536.967 -408.935C533.59 -410.891 532.434 -415.221 534.383 -418.608L623.506 -573.423ZM475.899 -664.695C477.849 -668.083 482.167 -669.243 485.543 -667.29L607.814 -596.489C611.19 -594.532 612.346 -590.204 610.398 -586.82L521.274 -432.001C519.324 -428.613 515.006 -427.453 511.63 -429.408L389.359 -500.208C385.983 -502.164 384.827 -506.493 386.775 -509.88L475.899 -664.695ZM150.604 584.392L239.727 429.577C241.677 426.19 245.995 425.03 249.371 426.983L371.642 497.783C375.018 499.74 376.174 504.069 374.226 507.453L285.102 662.272C283.152 665.66 278.834 666.82 275.458 664.865L153.188 594.065C149.811 592.109 148.655 587.78 150.604 584.392ZM298.211 673.218L387.334 518.403C389.284 515.016 393.602 513.856 396.979 515.809L519.249 586.609C522.625 588.566 523.782 592.894 521.833 596.279L432.71 751.098C430.76 754.485 426.442 755.645 423.066 753.691L300.795 682.891C297.419 680.935 296.262 676.606 298.211 673.218Z" fill="#EAEDF0"/>
<path fill-rule="evenodd" clip-rule="evenodd" d="M489.99 1332.32L400.867 1487.14C398.918 1490.53 394.6 1491.69 391.224 1489.74L120.7 1333.09C117.324 1331.13 116.168 1326.81 118.116 1323.42L207.24 1168.6C209.19 1165.22 213.507 1164.06 216.884 1166.01L487.407 1322.65C490.783 1324.61 491.94 1328.94 489.99 1332.32ZM683.706 1690.68L594.582 1845.5C592.633 1848.89 588.315 1850.05 584.939 1848.1L314.415 1691.45C311.039 1689.49 309.883 1685.17 311.831 1681.78L400.955 1526.96C402.905 1523.58 407.222 1522.42 410.599 1524.37L681.122 1681.01C684.498 1682.97 685.656 1687.3 683.706 1690.68ZM1097.01 992.766L1007.88 1147.58C1005.93 1150.97 1001.62 1152.13 998.24 1150.18L727.716 993.533C724.34 991.577 723.184 987.249 725.132 983.863L814.256 829.044C816.206 825.659 820.522 824.498 823.9 826.451L1094.42 983.096C1097.8 985.052 1098.96 989.381 1097.01 992.766ZM257.753 692.449L168.629 847.268C166.681 850.656 162.363 851.814 158.987 849.861L-111.537 693.216C-114.913 691.26 -116.07 686.932 -114.121 683.546L-24.9977 528.727C-23.0477 525.343 -18.731 524.181 -15.3536 526.134L255.169 682.779C258.545 684.735 259.703 689.065 257.753 692.449ZM164.863 1207.93C162.913 1211.31 158.596 1212.48 155.219 1210.52L32.9492 1139.72C29.5718 1137.77 28.4152 1133.43 30.3652 1130.05L119.489 975.23C121.437 971.846 125.755 970.684 129.132 972.64L251.402 1043.44C254.778 1045.39 255.935 1049.72 253.986 1053.11L164.863 1207.93ZM-42.3007 1216.22C-44.2493 1219.61 -48.5674 1220.77 -51.9434 1218.82L-174.214 1148.02C-177.59 1146.06 -178.747 1141.73 -176.798 1138.35L-87.6745 983.53C-85.7245 980.143 -81.4078 978.984 -78.0318 980.937L44.239 1051.74C47.615 1053.69 48.7729 1058.02 46.8229 1061.41L-42.3007 1216.22ZM63.7664 1032.13C61.8178 1035.52 57.4998 1036.68 54.1237 1034.72L-68.147 963.924C-71.523 961.969 -72.6796 957.636 -70.731 954.252L18.3926 799.436C20.3426 796.048 24.6592 794.89 28.0353 796.843L150.306 867.641C153.682 869.596 154.84 873.928 152.89 877.313L63.7664 1032.13ZM-197.204 1125.89C-199.152 1129.28 -203.47 1130.44 -206.846 1128.48L-329.117 1057.68C-332.493 1055.73 -333.65 1051.39 -331.701 1048.01L-242.578 893.194C-240.628 889.806 -236.311 888.648 -232.935 890.601L-110.664 961.399C-107.288 963.354 -106.13 967.686 -108.08 971.071L-197.204 1125.89ZM363.688 1215.74C361.739 1219.13 357.421 1220.29 354.045 1218.33L231.774 1147.53C228.398 1145.58 227.242 1141.25 229.19 1137.86L318.314 983.045C320.264 979.658 324.581 978.499 327.957 980.452L450.227 1051.25C453.603 1053.21 454.761 1057.54 452.811 1060.92L363.688 1215.74ZM511.379 1301.68C509.43 1305.07 505.112 1306.23 501.736 1304.28L379.465 1233.48C376.089 1231.52 374.933 1227.19 376.881 1223.81L466.005 1068.99C467.955 1065.6 472.272 1064.44 475.648 1066.4L597.918 1137.2C601.294 1139.15 602.452 1143.48 600.502 1146.87L511.379 1301.68ZM-58.1838 1243.82L-232.019 1545.79C-233.968 1549.17 -238.286 1550.33 -241.662 1548.38L-512.186 1391.74C-515.562 1389.78 -516.719 1385.45 -514.77 1382.06L-340.934 1080.09C-338.984 1076.71 -334.668 1075.55 -331.292 1077.5L-60.7678 1234.15C-57.3917 1236.1 -56.2338 1240.43 -58.1838 1243.82ZM987.72 1174.65L813.885 1476.62C811.936 1480.01 807.618 1481.17 804.242 1479.21L533.718 1322.57C530.342 1320.61 529.185 1316.28 531.134 1312.89L704.969 1010.93C706.919 1007.54 711.236 1006.38 714.612 1008.33L985.136 1164.98C988.512 1166.93 989.67 1171.26 987.72 1174.65ZM-198.83 1528.96C-196.88 1525.58 -192.563 1524.41 -189.186 1526.37L-66.9163 1597.17C-63.5389 1599.12 -62.3824 1603.45 -64.3324 1606.84L-153.456 1761.66C-155.405 1765.04 -159.723 1766.2 -163.099 1764.25L-285.369 1693.45C-288.745 1691.49 -289.902 1687.16 -287.953 1683.78L-198.83 1528.96ZM40.181 1423.4L-48.9426 1578.22C-50.8912 1581.61 -55.2093 1582.76 -58.5853 1580.81L-180.856 1510.01C-184.232 1508.06 -185.389 1503.73 -183.44 1500.34L-94.3164 1345.52C-92.3665 1342.14 -88.0498 1340.98 -84.6737 1342.93L37.597 1413.73C40.9744 1415.69 42.1309 1420.02 40.181 1423.4ZM12.4561 1160.05C14.4047 1156.66 18.7227 1155.5 22.0988 1157.46L144.369 1228.26C147.746 1230.21 148.902 1234.54 146.953 1237.93L57.8299 1392.74C55.8799 1396.13 51.5632 1397.29 48.1858 1395.34L-74.085 1324.54C-77.461 1322.58 -78.6175 1318.25 -76.6675 1314.87L12.4561 1160.05ZM110.111 1351.49L232.382 1422.29C235.758 1424.24 236.915 1428.57 234.966 1431.96L75.2495 1709.4C73.2994 1712.79 68.9828 1713.95 65.6068 1711.99L-56.664 1641.19C-60.04 1639.24 -61.1979 1634.91 -59.2479 1631.52L100.469 1354.08C102.417 1350.69 106.735 1349.53 110.111 1351.49ZM298.637 668.31C300.586 664.924 304.904 663.764 308.28 665.72L430.551 736.52C433.927 738.475 435.083 742.804 433.135 746.19L273.418 1023.64C271.468 1027.02 267.151 1028.18 263.775 1026.23L141.504 955.427C138.128 953.471 136.97 949.144 138.92 945.757L298.637 668.31ZM-246.636 562.973C-244.687 559.587 -240.369 558.427 -236.993 560.383L-114.722 631.183C-111.346 633.137 -110.19 637.467 -112.138 640.853L-271.855 918.298C-273.805 921.684 -278.122 922.845 -281.498 920.89L-403.769 850.089C-407.145 848.134 -408.303 843.807 -406.353 840.42L-246.636 562.973ZM143.714 1622.33C145.664 1618.94 149.98 1617.78 153.358 1619.74L275.629 1690.54C279.005 1692.49 280.161 1696.82 278.211 1700.21L189.088 1855.03C187.139 1858.41 182.821 1859.57 179.445 1857.62L57.1741 1786.82C53.798 1784.86 52.6415 1780.53 54.5901 1777.15L143.714 1622.33ZM-75.6059 1658.09C-73.6559 1654.7 -69.3392 1653.54 -65.9618 1655.5L56.309 1726.29C59.685 1728.25 60.8415 1732.58 58.8915 1735.97L-30.2321 1890.78C-32.1807 1894.17 -36.4987 1895.33 -39.8748 1893.37L-162.145 1822.58C-165.522 1820.62 -166.678 1816.29 -164.729 1812.9L-75.6059 1658.09ZM-134.649 710.609C-132.699 707.222 -128.383 706.062 -125.005 708.019L-2.73438 778.817C0.641663 780.772 1.79816 785.102 -0.151794 788.489L-89.2754 943.305C-91.224 946.693 -95.5421 947.851 -98.9181 945.896L-221.189 875.098C-224.565 873.144 -225.721 868.81 -223.773 865.426L-134.649 710.609ZM159.597 1594.74L248.72 1439.92C250.67 1436.53 254.988 1435.37 258.364 1437.33L380.635 1508.13C384.011 1510.09 385.168 1514.41 383.219 1517.8L294.095 1672.62C292.145 1676 287.827 1677.16 284.451 1675.21L162.181 1604.41C158.805 1602.45 157.648 1598.12 159.597 1594.74ZM573.307 1580.26L662.431 1425.45C664.381 1422.06 668.699 1420.9 672.075 1422.85L794.345 1493.65C797.721 1495.61 798.878 1499.94 796.929 1503.32L707.806 1658.14C705.856 1661.53 701.538 1662.69 698.162 1660.74L575.891 1589.94C572.515 1587.98 571.358 1583.65 573.307 1580.26ZM337.135 954.251L426.259 799.437C428.209 796.049 432.527 794.889 435.903 796.842L558.174 867.643C561.55 869.6 562.706 873.928 560.758 877.312L471.634 1032.13C469.684 1035.52 465.366 1036.68 461.99 1034.72L339.719 963.924C336.343 961.968 335.187 957.639 337.135 954.251ZM484.743 1043.08L573.867 888.263C575.817 884.875 580.135 883.715 583.511 885.668L705.781 956.468C709.157 958.426 710.314 962.754 708.365 966.138L619.242 1120.96C617.292 1124.34 612.974 1125.5 609.598 1123.55L487.327 1052.75C483.951 1050.79 482.794 1046.46 484.743 1043.08ZM510.606 1340.85C512.556 1337.46 516.874 1336.3 520.25 1338.26L642.521 1409.06C645.897 1411.02 647.053 1415.34 645.105 1418.73L555.981 1573.55C554.031 1576.93 549.713 1578.09 546.337 1576.14L424.066 1505.34C420.69 1503.38 419.534 1499.05 421.482 1495.67L510.606 1340.85ZM679.3 705.845C681.25 702.457 685.568 701.298 688.944 703.251L811.215 774.051C814.591 776.008 815.748 780.336 813.799 783.721L724.676 938.539C722.726 941.927 718.407 943.087 715.031 941.132L592.761 870.332C589.385 868.376 588.228 864.047 590.177 860.66L679.3 705.845ZM531.693 614.573C533.643 611.185 537.961 610.025 541.337 611.978L663.608 682.778C666.984 684.736 668.14 689.064 666.192 692.448L577.068 847.267C575.118 850.655 570.8 851.814 567.424 849.86L445.153 779.06C441.777 777.104 440.621 772.775 442.569 769.387L531.693 614.573ZM206.397 1863.66L295.521 1708.85C297.471 1705.46 301.789 1704.3 305.165 1706.25L427.436 1777.05C430.812 1779.01 431.968 1783.34 430.02 1786.72L340.896 1941.54C338.946 1944.93 334.628 1946.09 331.252 1944.13L208.981 1873.33C205.605 1871.38 204.449 1867.05 206.397 1863.66ZM354.005 1952.49L443.129 1797.67C445.079 1794.28 449.397 1793.12 452.773 1795.08L575.043 1865.88C578.419 1867.83 579.576 1872.16 577.627 1875.55L488.504 2030.37C486.554 2033.75 482.236 2034.91 478.86 2032.96L356.589 1962.16C353.213 1960.2 352.056 1955.87 354.005 1952.49Z" fill="#EAEDF0"/>
</g>
</svg>
