<svg width="31" height="30" viewBox="0 0 31 30" fill="none" xmlns="http://www.w3.org/2000/svg">
<g clip-path="url(#clip0_816_168)">
<path d="M17.055 10.2128C17.0112 10.1303 17.4825 10.0853 17.5662 10.0853C17.6588 10.0965 17.3213 10.6503 17.055 10.2128ZM14.365 6.37277L14.5 6.33402C14.58 6.40277 14.41 6.45277 14.4362 6.50402C14.5437 6.69777 14.4625 6.81402 14.4462 6.91902C14.4288 7.02527 14.3162 6.97902 14.26 7.03527C14.1938 7.11777 14.5825 7.12902 14.5875 7.14152C14.6012 7.18277 14.1188 7.25277 14.2075 7.35527C14.3275 7.52527 15.2375 7.11152 15.0925 7.13527C15.3738 6.99402 15.1287 6.97902 14.9713 6.89777C14.9175 6.62902 14.8725 6.21402 14.705 6.04777L14.815 5.92027C14.5575 5.54652 14.365 6.37277 14.365 6.37277ZM30.625 14.999C30.625 23.2828 23.9088 29.999 15.625 29.999C7.34 29.999 0.625 23.2828 0.625 14.999C0.625 6.71527 7.34 -0.000976562 15.625 -0.000976562C23.9088 -0.000976562 30.625 6.71527 30.625 14.999ZM20.2375 8.28527C20.23 8.10277 20 7.93027 19.76 8.24652C19.5912 8.46402 19.6213 8.79527 19.53 8.94277C19.4 9.16152 20.2388 9.36652 20.2388 9.16027C20.27 8.81402 21.1538 9.08152 21.3263 9.12902C21.6363 9.21527 22.13 8.84652 21.59 8.65277C21.1462 8.49027 20.9125 8.31652 20.8725 7.99902C20.8725 7.99902 21.1075 7.77902 21.005 7.79152C20.7325 7.82527 20.2375 8.77402 20.2375 8.28527ZM28.1075 14.999C28.1075 13.7053 27.8862 12.399 27.6612 11.709C27.5887 11.4915 27.425 11.319 27.2125 11.2365C26.8925 11.1115 25.5413 11.9828 25.3375 11.554C25.2038 11.2678 24.9325 11.7365 24.6225 11.564C24.4725 11.4815 24.055 10.9203 23.8663 10.989C23.48 11.1278 24.4587 12.194 24.7262 12.334C24.9775 12.144 25.7913 11.7528 25.9663 12.2865C26.3013 13.2915 25.045 14.3928 24.4025 14.9728C23.4425 15.8403 23.6225 14.4115 22.9688 13.9078C22.625 13.644 22.6288 13.0828 22.2812 12.889C22.1263 12.8015 21.415 11.9828 21.4212 11.8728L21.4 12.0803C21.2825 12.169 21.0325 11.7453 21.0063 11.679C21.0063 12.0478 21.6063 12.6353 21.805 12.9303C22.1438 13.4365 22.325 14.174 22.74 14.5878C22.9625 14.8103 23.8125 15.7303 24.0337 15.7103C24.275 15.689 25.0375 15.1378 25.1725 15.169C25.9775 15.359 23.2775 19.1753 23.0212 19.6478C22.81 20.044 23.1938 21.024 23.1625 21.4928C23.1263 22.034 22.7 22.209 22.2962 22.504C21.8638 22.8203 21.965 23.4353 21.6012 23.6603C20.955 24.0578 20.49 25.3515 19.5725 25.3453C19.3025 25.344 18.1475 25.7953 17.9963 25.354C17.8787 25.034 17.7213 24.7915 17.555 24.4753C17.3925 24.1653 17.5363 23.844 17.3388 23.5703C17.2025 23.3803 16.745 22.949 16.7038 22.724C16.7013 22.5303 16.85 21.9415 17.0537 21.839C17.34 21.6928 17.1088 21.2665 17.0737 21.019C17.0138 20.5765 16.74 20.2115 16.4112 19.9553C15.925 19.5815 16.1762 19.284 16.29 18.7503C16.29 18.4953 16.135 18.1603 15.7925 18.2603C15.0875 18.4653 15.3012 17.7103 14.7875 17.744C14.4175 17.7703 14.115 18.0053 13.7712 18.109C13.3387 18.239 12.8963 18.0065 12.4688 17.9528C10.71 17.7303 10.1362 15.7203 10.595 14.2703C10.6412 14.0328 10.4525 13.5928 10.535 13.409C10.7325 12.969 11.135 12.4753 11.4875 12.1415C11.685 11.954 11.9388 12.0015 12.1713 11.8553C12.53 11.629 12.535 11.164 12.8862 10.879C13.3863 10.4728 14.0688 10.4815 14.7213 10.394C15.0688 10.3478 16.3912 10.0615 16.6 10.319C16.6 10.3665 16.8387 11.074 16.5763 11.034C17.1175 11.0628 17.8888 11.9703 18.4025 11.7578C18.6663 11.6478 18.57 10.8378 19.1112 11.229C19.4387 11.464 20.9062 11.569 21.2113 11.3153C21.3988 11.1603 21.5037 10.1528 21.2762 10.039C21.4212 10.1828 20.5125 10.194 20.4275 10.1615C20.2775 10.1065 20.1375 10.304 19.8962 10.1928C20.0413 10.2615 19.0888 9.75027 19.6238 9.35902C19.4 9.52277 19.1912 9.31277 18.95 9.49277C18.7838 9.62777 19.0275 9.71777 18.79 9.83527C18.4125 10.0265 18.1275 9.17902 17.985 9.08277C17.84 8.98777 16.7175 8.20027 17.0225 8.71402L18.0087 9.69527C17.96 9.72652 17.75 9.33777 17.75 9.62152C17.8162 9.45277 17.775 10.3453 17.62 10.0553C17.5513 9.94402 17.7325 9.88152 17.6275 9.72027C17.6275 9.61402 17.3425 9.51027 17.2875 9.43777C17.1313 9.24402 16.7162 8.81652 16.4913 8.71402C16.4288 8.68527 15.5363 8.82277 15.4613 8.85152C15.3738 8.97402 15.2987 9.10277 15.2375 9.24027C15.0525 9.30902 14.8787 9.39777 14.7137 9.50777L14.5175 9.94902C14.4325 10.0253 13.5613 10.3128 13.5563 10.324C13.5925 10.2303 12.9475 10.1103 12.99 9.92277C13.0375 9.71652 13.2563 9.07277 13.2 8.83777C13.14 8.59152 14.5425 9.19277 14.6325 8.54402C14.6688 8.26277 14.69 7.93527 14.2412 7.88777C14.3262 7.89777 15.11 7.58027 15.24 7.43777C15.4225 7.22777 15.8413 6.88527 16.145 6.88527C16.5 6.88527 16.4238 6.36902 16.5875 6.11652C16.7513 6.18277 16.5 6.58652 16.6963 6.75027C16.6838 6.62152 17.2525 6.82152 17.3075 6.79152C17.4375 6.72402 18.1625 6.76402 18.05 6.42402C17.925 6.07777 18.1138 6.18027 18.2763 6.10777C18.2488 6.11902 18.7013 5.33402 18.7787 5.59152C18.725 5.32652 18.2525 5.68402 18.0875 5.67027C17.7063 5.64027 17.8675 5.02027 18.0112 4.83902C18.1225 4.69527 17.7075 4.51902 17.7025 4.79402C17.695 5.20527 17.3125 5.57777 17.4012 6.12402C17.5362 6.94777 16.4825 5.92527 16.39 5.98152C16.04 6.19402 15.7537 5.71402 15.935 5.42652C16.12 5.13277 16.5662 5.14652 16.75 4.83152C16.88 4.60902 17.0312 4.35027 17.2313 4.18152C17.9 3.62027 18.085 4.06902 18.7513 4.13027C19.4025 4.19027 18.9712 4.28527 18.8812 4.53527C18.795 4.77277 19.2388 4.85777 19.3925 4.65902C19.48 4.54402 19.6788 4.25527 19.765 4.04152C19.8763 3.76402 20.8913 3.79527 20.1825 3.37152C19.715 3.09277 17.6775 2.53152 16.3125 2.53152C16.0175 2.53152 15.8112 2.86027 15.5863 3.04652C15.1412 3.41527 14.0013 4.13902 13.3675 3.91902C12.7188 3.69527 11.33 4.74402 11.1075 4.75152C11.0262 4.75652 11.1125 3.95902 11.555 3.90027C11.3638 3.92902 13.1138 3.01652 13.0662 2.82652C13.0087 2.60152 9.5675 3.85402 9.72125 4.10527C9.795 4.22027 10.095 4.22027 9.70125 4.47277C9.47625 4.60902 9.23625 5.47402 9.025 5.47402C8.39375 5.75027 8.35375 4.93027 7.65125 5.98527L6.53375 6.43527C4.87375 8.19902 3.725 10.4328 3.30875 12.914C3.2925 13.0128 3.72625 13.1965 3.7825 13.264C3.9225 13.4315 3.9225 14.154 3.99125 14.3903C4.16375 14.9878 4.59 15.3203 4.91625 15.864C5.10875 16.1878 5.42875 17.0065 5.3275 17.3465C5.4625 17.124 6.665 18.3653 6.885 18.624C7.4025 19.2328 7.80125 19.9703 6.96125 20.5728C6.69 20.7678 7.37375 21.984 7.02125 22.2828L6.57 22.399C6.125 22.6728 6.32625 23.344 6.59625 23.6265C8.86875 26.0028 12.0712 27.4853 15.6213 27.4853C22.5175 27.4853 28.1075 21.8953 28.1075 14.999ZM13.7238 7.05277C13.88 6.98402 14.09 6.98652 14.1125 6.77777C14.1313 6.59277 14.1675 6.72027 14.2125 6.65277C14.2562 6.58652 14.1287 6.48027 14.075 6.47027C13.995 6.45277 13.94 6.55652 13.8888 6.60027L13.7987 6.62402L13.7137 6.73277L13.7238 6.79277L13.615 6.92527C13.5087 7.03027 13.6175 7.09902 13.7238 7.05277Z" fill="#597393"/>
</g>
<defs>
<clipPath id="clip0_816_168">
<rect width="30" height="30" fill="white" transform="translate(0.625 -0.000976562)"/>
</clipPath>
</defs>
</svg>
