<svg width="16" height="16" viewBox="0 0 16 16" fill="none" xmlns="http://www.w3.org/2000/svg">
<path fill-rule="evenodd" clip-rule="evenodd" d="M0 7.99902C0 5.03789 1.60879 2.45252 4 1.06928V0.999023H4.12399H8H11.876H12V1.06928C14.3912 2.45252 16 5.03789 16 7.99902C16 12.4173 12.4183 15.999 8 15.999C3.58172 15.999 0 12.4173 0 7.99902ZM11.6076 1.99902H4.39241C2.35958 3.22392 1 5.4527 1 7.99902C1 11.865 4.13401 14.999 8 14.999C11.866 14.999 15 11.865 15 7.99902C15 5.4527 13.6404 3.22392 11.6076 1.99902Z" fill="#00BA6C"/>
<circle cx="6" cy="10.899" r="1.2" stroke="#00BA6C" stroke-width="0.6"/>
<circle cx="10" cy="10.899" r="1.2" stroke="#00BA6C" stroke-width="0.6"/>
<circle cx="9.5" cy="4.599" r="0.7" stroke="#00BA6C" stroke-width="0.6"/>
<circle cx="6.5" cy="4.599" r="0.7" stroke="#00BA6C" stroke-width="0.6"/>
<path d="M9.5 7.49902C9.5 8.32745 8.82843 8.99902 8 8.99902C7.17157 8.99902 6.5 8.32745 6.5 7.49902C6.5 6.6706 7.17157 5.99902 8 5.99902C8.82843 5.99902 9.5 6.6706 9.5 7.49902ZM7.1 7.49902C7.1 7.99608 7.50294 8.39902 8 8.39902C8.49706 8.39902 8.9 7.99608 8.9 7.49902C8.9 7.00197 8.49706 6.59902 8 6.59902C7.50294 6.59902 7.1 7.00197 7.1 7.49902Z" fill="#00BA6C"/>
<path d="M13.5 7.49902C13.5 8.32745 12.8284 8.99902 12 8.99902C11.1716 8.99902 10.5 8.32745 10.5 7.49902C10.5 6.6706 11.1716 5.99902 12 5.99902C12.8284 5.99902 13.5 6.6706 13.5 7.49902ZM11.1 7.49902C11.1 7.99608 11.5029 8.39902 12 8.39902C12.4971 8.39902 12.9 7.99608 12.9 7.49902C12.9 7.00197 12.4971 6.59902 12 6.59902C11.5029 6.59902 11.1 7.00197 11.1 7.49902Z" fill="#00BA6C"/>
<path d="M5.5 7.49902C5.5 8.32745 4.82843 8.99902 4 8.99902C3.17157 8.99902 2.5 8.32745 2.5 7.49902C2.5 6.6706 3.17157 5.99902 4 5.99902C4.82843 5.99902 5.5 6.6706 5.5 7.49902ZM3.1 7.49902C3.1 7.99608 3.50294 8.39902 4 8.39902C4.49706 8.39902 4.9 7.99608 4.9 7.49902C4.9 7.00197 4.49706 6.59902 4 6.59902C3.50294 6.59902 3.1 7.00197 3.1 7.49902Z" fill="#00BA6C"/>
</svg>
