<svg width="27" height="27" viewBox="0 0 27 27" fill="none" xmlns="http://www.w3.org/2000/svg">
<path d="M12.9196 1.09047C13.21 0.150833 14.54 0.150833 14.8304 1.09047L17.1985 8.75278C17.3279 9.17178 17.7153 9.45751 18.1539 9.45751H25.9188C26.8754 9.45751 27.286 10.6715 26.5259 11.2521L20.158 16.1171C19.825 16.3715 19.686 16.8066 19.8097 17.207L22.2211 25.0097C22.5086 25.9399 21.4324 26.6907 20.6587 26.0996L14.482 21.381C14.1236 21.1073 13.6263 21.1072 13.2679 21.381L7.08993 26.1C6.31622 26.691 5.24002 25.9402 5.5275 25.01L7.93905 17.2069C8.06279 16.8066 7.92376 16.3715 7.59077 16.1171L1.2237 11.2521C0.463679 10.6714 0.874354 9.45751 1.83084 9.45751H9.59613C10.0347 9.45751 10.4221 9.17177 10.5515 8.75278L12.9196 1.09047Z" fill="#597393" fill-opacity="0.6"/>
</svg>
