<svg width="29" height="28" viewBox="0 0 29 28" fill="none" xmlns="http://www.w3.org/2000/svg">
<path d="M14.375 -0.000976562C6.6435 -0.000976562 0.375 6.26752 0.375 13.999C0.375 21.7305 6.6435 27.999 14.375 27.999C22.1065 27.999 28.375 21.7305 28.375 13.999C28.375 6.26752 22.1065 -0.000976562 14.375 -0.000976562ZM14.375 25.6657C10.7315 25.6657 7.47533 23.9845 5.3345 21.3607C5.63667 20.6747 6.248 20.1999 7.51267 19.907C10.1307 19.3027 12.7148 18.7625 11.4712 16.4712C7.79033 9.68119 10.4223 5.83236 14.375 5.83236C18.2507 5.83236 20.948 9.53886 17.2788 16.4712C16.0713 18.7485 18.5622 19.2899 21.2373 19.907C22.4997 20.1987 23.1157 20.6712 23.4202 21.3549C21.2782 23.9834 18.0208 25.6657 14.375 25.6657Z" fill="#597393" fill-opacity="0.6"/>
</svg>
