<svg width="202" height="122" viewBox="0 0 202 122" fill="none" xmlns="http://www.w3.org/2000/svg">
<path fill-rule="evenodd" clip-rule="evenodd" d="M137.805 47.0711C140.037 47.4101 142.055 47.1452 143.382 46.3714C142.76 44.9605 141.282 43.5521 139.278 42.5055C139.615 40.2585 139.352 38.2269 138.583 36.8915C137.182 37.5171 135.782 39.005 134.743 41.0221C132.511 40.6831 130.492 40.948 129.166 41.7218C129.787 43.1327 131.265 44.5411 133.269 45.5877C132.932 47.8347 133.195 49.8662 133.964 51.2017C135.366 50.5761 136.765 49.0882 137.805 47.0711ZM58.3463 73.4176C58.7612 74.9316 59.4946 76.1398 60.3529 76.7654C61.0632 75.9738 61.531 74.6385 61.6242 73.0708C63.1282 72.6532 64.3285 71.9149 64.95 71.051C64.1636 70.336 62.8371 69.865 61.2796 69.7713C60.8648 68.2573 60.1313 67.0491 59.273 66.4235C58.5628 67.2151 58.0949 68.5504 58.0018 70.1181C56.4977 70.5357 55.2975 71.274 54.6759 72.1379C55.4623 72.8529 56.7889 73.3239 58.3463 73.4176ZM84.7853 93.2888C83.9446 93.1257 82.9977 92.4931 82.1804 91.5271C81.0082 91.9938 79.8771 92.1048 79.0587 91.8516C79.2208 91.0054 79.8493 90.0522 80.8089 89.2295C80.3453 88.0496 80.235 86.911 80.4865 86.0872C81.3272 86.2504 82.2741 86.883 83.0914 87.8489C84.2636 87.3823 85.3947 87.2712 86.2131 87.5245C86.051 88.3707 85.4226 89.3238 84.4629 90.1466C84.9265 91.3265 85.0369 92.465 84.7853 93.2888Z" fill="#E5F2FF"/>
<path fill-rule="evenodd" clip-rule="evenodd" d="M109.625 66.0499C108.765 65.0178 107.235 64.8839 106.209 65.751C105.182 66.6181 105.047 68.1577 105.908 69.1899L121.838 88.3015C122.699 89.3337 124.228 89.4675 125.255 88.6004C126.281 87.7334 126.416 86.1937 125.556 85.1616L109.625 66.0499Z" fill="#E5F2FF" stroke="#EAEDF0" stroke-linecap="round"/>
<path fill-rule="evenodd" clip-rule="evenodd" d="M121.493 75.8564C119.63 73.6207 116.316 73.3308 114.093 75.209C111.869 77.0872 111.578 80.4222 113.441 82.658L117.854 87.952C119.717 90.1878 123.031 90.4776 125.254 88.5994C127.478 86.7212 127.769 83.3862 125.906 81.1504L121.493 75.8564Z" fill="white" stroke="#EAEDF0" stroke-linecap="round"/>
<path fill-rule="evenodd" clip-rule="evenodd" d="M123.519 83.6128L119.179 78.4063L123.519 83.6128Z" fill="white"/>
<path d="M123.519 83.6128L119.179 78.4063" stroke="#EAEDF0" stroke-linecap="round"/>
<path fill-rule="evenodd" clip-rule="evenodd" d="M72.316 52.0534C72.316 64.1816 82.0834 74.0134 94.132 74.0134C106.181 74.0134 115.948 64.1816 115.948 52.0534C115.948 39.9252 106.181 30.0934 94.132 30.0934C82.0834 30.0934 72.316 39.9252 72.316 52.0534ZM77.164 52.0534C77.164 61.4864 84.7608 69.1334 94.132 69.1334C103.503 69.1334 111.1 61.4864 111.1 52.0534C111.1 42.6204 103.503 34.9734 94.132 34.9734C84.7608 34.9734 77.164 42.6204 77.164 52.0534Z" fill="#E5F2FF"/>
<path d="M94.132 74.5134C81.8041 74.5134 71.816 64.4546 71.816 52.0534H72.816C72.816 63.9085 82.3626 73.5134 94.132 73.5134V74.5134ZM116.448 52.0534C116.448 64.4546 106.46 74.5134 94.132 74.5134V73.5134C105.901 73.5134 115.448 63.9085 115.448 52.0534H116.448ZM94.132 29.5934C106.46 29.5934 116.448 39.6522 116.448 52.0534H115.448C115.448 40.1982 105.901 30.5934 94.132 30.5934V29.5934ZM71.816 52.0534C71.816 39.6522 81.8041 29.5934 94.132 29.5934V30.5934C82.3626 30.5934 72.816 40.1982 72.816 52.0534H71.816ZM94.132 69.6334C84.4816 69.6334 76.664 61.7594 76.664 52.0534H77.664C77.664 61.2134 85.0401 68.6334 94.132 68.6334V69.6334ZM111.6 52.0534C111.6 61.7594 103.782 69.6334 94.132 69.6334V68.6334C103.224 68.6334 110.6 61.2134 110.6 52.0534H111.6ZM94.132 34.4734C103.782 34.4734 111.6 42.3473 111.6 52.0534H110.6C110.6 42.8934 103.224 35.4734 94.132 35.4734V34.4734ZM76.664 52.0534C76.664 42.3473 84.4816 34.4734 94.132 34.4734V35.4734C85.0401 35.4734 77.664 42.8934 77.664 52.0534H76.664Z" fill="#EAEDF0"/>
<path fill-rule="evenodd" clip-rule="evenodd" d="M91.2142 41.074C93.608 40.4266 96.028 40.6304 98.1558 41.501L91.2142 41.074ZM101.718 43.8775C103.048 45.199 104.056 46.8826 104.574 48.8305L101.718 43.8775Z" fill="#E5F2FF"/>
<path d="M91.3431 41.5571C91.0766 41.6292 90.8027 41.4713 90.7315 41.2045C90.6603 40.9377 90.8187 40.663 91.0852 40.5909L91.3431 41.5571ZM98.3459 41.0377C98.601 41.1421 98.7228 41.4341 98.6179 41.69C98.5129 41.9459 98.2209 42.0687 97.9658 41.9643L98.3459 41.0377ZM101.366 44.2333C101.17 44.0389 101.169 43.7221 101.364 43.5256C101.559 43.3291 101.875 43.3274 102.07 43.5217L101.366 44.2333ZM105.057 48.7006C105.127 48.9675 104.969 49.242 104.702 49.3138C104.435 49.3855 104.162 49.2273 104.091 48.9604L105.057 48.7006ZM91.0852 40.5909C93.5884 39.9139 96.1204 40.1271 98.3459 41.0377L97.9658 41.9643C95.9356 41.1337 93.6276 40.9392 91.3431 41.5571L91.0852 40.5909ZM102.07 43.5217C103.462 44.9039 104.516 46.6649 105.057 48.7006L104.091 48.9604C103.597 47.1003 102.635 45.4941 101.366 44.2333L102.07 43.5217Z" fill="#EAEDF0"/>
</svg>
