<svg width="26" height="26" viewBox="0 0 26 26" fill="none" xmlns="http://www.w3.org/2000/svg">
<path d="M16.8162 -0.000976562H17.6999C18.5005 0.58179 18.6721 1.60027 19.0302 2.45944C16.198 3.52013 13.3618 4.57265 10.5365 5.6524C9.90743 5.88932 9.2239 5.87435 8.56216 5.86345C6.68587 5.82941 4.80958 5.88252 2.93329 5.83894C3.08851 5.58296 3.20969 5.29022 3.44934 5.09823C3.72983 4.89944 4.05797 4.78234 4.37659 4.65843C7.95216 3.34585 11.5046 1.9679 15.087 0.670294C15.6684 0.460607 16.2348 0.20871 16.8162 -0.000976562Z" fill="#597393" fill-opacity="0.6"/>
<path d="M18.6871 3.85373C18.9527 3.78974 19.2046 3.69443 19.4306 3.53784C19.7056 4.31259 19.9929 5.08462 20.2993 5.84712C18.0077 5.85257 15.7161 5.86891 13.4259 5.83895C15.1619 5.13637 16.9457 4.55088 18.6871 3.85373Z" fill="#597393" fill-opacity="0.6"/>
<path d="M0.802429 7.4879C1.13194 7.05219 1.55812 6.60694 2.15723 6.66685C8.3321 6.67366 14.507 6.66958 20.6819 6.67094C21.3586 6.67638 22.038 6.62056 22.712 6.69136C23.3002 6.74038 23.789 7.24009 23.8939 7.8106C23.9783 8.24087 23.9606 8.68339 23.9606 9.12183C23.9374 10.3459 23.9606 11.57 23.9456 12.7941C22.5854 12.805 21.2238 12.7995 19.8635 12.79C19.2794 12.7941 18.683 12.7886 18.1193 12.9615C17.1267 13.2679 16.3247 14.1039 16.0456 15.102C15.8291 15.8849 15.8999 16.7523 16.2757 17.4753C16.6706 18.2405 17.3881 18.8396 18.2228 19.0629C18.7565 19.2059 19.3148 19.2018 19.8635 19.2059C21.2238 19.1963 22.5854 19.1909 23.9456 19.2018C23.9388 20.7431 23.9783 22.2845 23.9402 23.8244C23.947 24.4726 23.4691 24.9491 22.9993 25.3249H1.94618C1.4383 25.0962 1.03118 24.689 0.802429 24.1812V7.4879Z" fill="#597393" fill-opacity="0.6"/>
<path d="M18.9622 13.8195C19.53 13.7173 20.1087 13.7446 20.6833 13.7459C21.5928 13.7609 22.501 13.7459 23.4106 13.7405C23.8245 13.7486 24.252 13.7405 24.6469 13.8834C25.0282 14.0332 25.2501 14.4049 25.4475 14.7426V17.3896C25.2501 17.7259 25.0282 18.099 24.6469 18.2501C24.252 18.3944 23.8245 18.3835 23.4106 18.3931C22.501 18.3863 21.5915 18.3699 20.6833 18.3863C20.1087 18.3876 19.53 18.4149 18.9622 18.3127C17.926 18.1248 17.1227 17.1173 17.1486 16.0661C17.1227 15.0163 17.9247 14.0074 18.9622 13.8195ZM19.2468 15.177C18.6559 15.3785 18.4557 16.205 18.856 16.6707C19.1855 17.0968 19.8976 17.1268 20.2666 16.7387C20.6547 16.3697 20.6234 15.6576 20.1972 15.3295C19.9398 15.1062 19.5613 15.0776 19.2468 15.177Z" fill="#597393" fill-opacity="0.6"/>
</svg>
