<svg width="26" height="24" viewBox="0 0 26 24" fill="none" xmlns="http://www.w3.org/2000/svg">
<path d="M11.8937 2.08032C12.2301 1.05135 13.7707 1.05135 14.107 2.08032L16.0296 7.96148C16.1796 8.42031 16.6283 8.73321 17.1363 8.73321H23.476C24.5839 8.73321 25.0596 10.0626 24.1792 10.6984L18.951 14.4746C18.5652 14.7532 18.4042 15.2296 18.5475 15.6681L20.5203 21.703C20.8533 22.7217 19.6067 23.5438 18.7105 22.8966L13.7035 19.2804C13.2884 18.9806 12.7124 18.9806 12.2972 19.2804L7.28894 22.897C6.39274 23.5441 5.14617 22.722 5.47916 21.7034L7.45212 15.668C7.59544 15.2296 7.4344 14.7532 7.0487 14.4746L1.82115 10.6984C0.940806 10.0625 1.41649 8.73321 2.52441 8.73321H8.86448C9.37246 8.73321 9.82116 8.42031 9.97115 7.96148L11.8937 2.08032Z" stroke="#F2B005"/>
</svg>
