<svg width="24" height="23" viewBox="0 0 24 23" fill="none" xmlns="http://www.w3.org/2000/svg">
<path d="M10.8589 0.813526C11.2058 -0.271174 12.7946 -0.271176 13.1414 0.813524L15.1241 7.01325C15.2788 7.49693 15.7415 7.82678 16.2653 7.82678H22.8032C23.9457 7.82678 24.4363 9.22814 23.5283 9.89847L18.1367 13.8791C17.7389 14.1728 17.5728 14.6751 17.7207 15.1373L19.7551 21.4991C20.0985 22.573 18.8129 23.4396 17.8887 22.7573L12.7253 18.9453C12.2972 18.6292 11.7032 18.6292 11.2751 18.9452L6.11027 22.7577C5.18606 23.44 3.90054 22.5733 4.24393 21.4995L6.27854 15.1373C6.42635 14.6751 6.26028 14.1728 5.86252 13.8791L0.47161 9.89842C-0.436244 9.22806 0.0543101 7.82678 1.19684 7.82678H7.73505C8.2589 7.82678 8.72163 7.49693 8.8763 7.01325L10.8589 0.813526Z" fill="#F2B005"/>
</svg>
